<svg id="Layer_1" data-name="Layer 1" xmlns="http://www.w3.org/2000/svg" viewBox="0 0 230.09 86.34"><defs><style>.cls-1{fill:#f1f1f1;}.cls-2{fill:#ff4200;}.cls-3{fill:#f5f3f4;}</style></defs><path class="cls-1" d="M86.45,82.12a8.16,8.16,0,0,1,3.15,5.19s0,0,0,0H84.26a4.12,4.12,0,0,0-1.63-1.78,5.43,5.43,0,0,0-6.47.94,7.45,7.45,0,0,0,.08,8.94A5.66,5.66,0,0,0,80.57,97a5.1,5.1,0,0,0,5.07-3.8s0,0,0,0H79.26V89.58a0,0,0,0,1,0,0H89.86s0,0,0,0v5h0A10,10,0,0,1,88,98a9.67,9.67,0,0,1-3.32,2.54,10.54,10.54,0,0,1-4.63,1,10.93,10.93,0,0,1-5.52-1.35,9.18,9.18,0,0,1-3.65-3.76,12.48,12.48,0,0,1,0-11.05,9.22,9.22,0,0,1,3.63-3.77A10.83,10.83,0,0,1,80,80.2,10.48,10.48,0,0,1,86.45,82.12Z" transform="translate(-23.39 -44.16)"/><path class="cls-1" d="M105.65,97.49H97.82l-1.3,3.8H91.21s0,0,0,0l7.64-20.73h5.83l7.65,20.73H107l-1.3-3.8Zm-1.3-3.85L101.76,86h0l-2.62,7.65h5.22A0,0,0,0,0,104.35,93.64Z" transform="translate(-23.39 -44.16)"/><path class="cls-1" d="M137.77,80.57v20.72h-5.05V88.38h0l-4.47,12.93h-4.38l-4.5-13h0v12.94h-5V80.57h6.18L126.09,95s0,0,0,0l5.51-14.43h6.15Z" transform="translate(-23.39 -44.16)"/><path class="cls-1" d="M146.31,80.42v20.87h-5.05V80.42h5S146.31,80.41,146.31,80.42Z" transform="translate(-23.39 -44.16)"/><path class="cls-1" d="M163.42,80.42v4a0,0,0,0,1,0,0h-8.56V89s0,0,0,0h6.61v3.82h-6.61s0,0,0,0v8.43h-5V80.42h13.61A0,0,0,0,1,163.42,80.42Z" transform="translate(-23.39 -44.16)"/><path class="cls-1" d="M171.07,80.42v20.87h-5V80.42s0,0,0,0h5S171.07,80.41,171.07,80.42Z" transform="translate(-23.39 -44.16)"/><path class="cls-1" d="M179.61,84.43V88.8h7.06v3.81h-7.06v4.64h7.95v4h-13V80.41h13v4Z" transform="translate(-23.39 -44.16)"/><path class="cls-1" d="M201.15,101.3l-4.31-7.52a.72.72,0,0,0-.63-.37h-.73v7.87h-5.06V80.42a0,0,0,0,1,0,0h8.62a9.36,9.36,0,0,1,4.2.86,5.89,5.89,0,0,1,2.57,2.35,6.72,6.72,0,0,1,.85,3.41,6,6,0,0,1-1.25,3.87,6.41,6.41,0,0,1-3.64,2.18s0,0,0,0l4.95,8.19h-5.58ZM195.48,90h3.13a3.16,3.16,0,0,0,2.21-.66,2.54,2.54,0,0,0,.71-2,2.63,2.63,0,0,0-.72-1.95,3,3,0,0,0-2.2-.7h-3.13Z" transform="translate(-23.39 -44.16)"/><path class="cls-1" d="M229.29,98.46a5.91,5.91,0,0,1-2.48,2.22,8.75,8.75,0,0,1-4,.83,9.29,9.29,0,0,1-5.79-1.72A6.19,6.19,0,0,1,214.56,95h5.38a2.84,2.84,0,0,0,.84,1.86,2.62,2.62,0,0,0,1.85.68,2.18,2.18,0,0,0,1.54-.53,1.89,1.89,0,0,0,.56-1.42,1.81,1.81,0,0,0-.52-1.33,3.81,3.81,0,0,0-1.28-.87c-.52-.23-1.23-.5-2.13-.82a26.54,26.54,0,0,1-3.24-1.31,5.93,5.93,0,0,1-2.15-1.89,6.13,6.13,0,0,1,0-6.49,6,6,0,0,1,2.62-2.08,9.53,9.53,0,0,1,3.82-.72,8.59,8.59,0,0,1,5.54,1.65,6.31,6.31,0,0,1,2.32,4.54s0,0,0,0h-5.46a2.76,2.76,0,0,0-.75-1.63,2.22,2.22,0,0,0-1.64-.6,2.07,2.07,0,0,0-1.43.47,1.94,1.94,0,0,0-.06,2.64,3.44,3.44,0,0,0,1.23.84c.49.22,1.2.5,2.12.83A23,23,0,0,1,227,90.18a6.27,6.27,0,0,1,2.19,1.93,5.54,5.54,0,0,1,.92,3.31A5.67,5.67,0,0,1,229.29,98.46Z" transform="translate(-23.39 -44.16)"/><path class="cls-1" d="M245.88,97.49h-7.83l-1.29,3.8h-5.32l7.65-20.73h5.82l7.65,20.73h-5.38l-1.29-3.8Zm-1.3-3.85L242,86h0l-2.62,7.65a0,0,0,0,0,0,0h5.2A0,0,0,0,0,244.58,93.64Z" transform="translate(-23.39 -44.16)"/><path class="cls-2" d="M199,109.47h-14a.21.21,0,0,0-.21.21v1.76a.21.21,0,0,0,.21.21h5.46a.22.22,0,0,1,.21.21v18.23a.21.21,0,0,0,.21.21h2.27a.22.22,0,0,0,.21-.21V111.86a.21.21,0,0,1,.2-.21H199a.21.21,0,0,0,.21-.21v-1.76A.21.21,0,0,0,199,109.47Z" transform="translate(-23.39 -44.16)"/><path class="cls-2" d="M213.14,114.87a8.2,8.2,0,0,0-4.13-1,8.33,8.33,0,0,0-4.13,1,7.1,7.1,0,0,0-2.82,2.9,9.2,9.2,0,0,0-1,4.43,9.1,9.1,0,0,0,1,4.42,7.11,7.11,0,0,0,2.82,2.88,8.33,8.33,0,0,0,4.13,1,8.84,8.84,0,0,0,3.67-.73,7,7,0,0,0,2.64-2.07,6.83,6.83,0,0,0,1.27-2.76.22.22,0,0,0-.21-.26h-2.44a.2.2,0,0,0-.2.17,4.09,4.09,0,0,1-1.58,2.48,5.27,5.27,0,0,1-3.26,1,5.13,5.13,0,0,1-3.65-1.39,5.52,5.52,0,0,1-1.57-3.94.22.22,0,0,1,.21-.23h12.57a.21.21,0,0,0,.21-.17,8.37,8.37,0,0,0,.09-1.3,7.62,7.62,0,0,0-.93-3.73A7,7,0,0,0,213.14,114.87Zm.69,6.59h-9.94a.21.21,0,0,1-.21-.22,5.41,5.41,0,0,1,1.61-3.81,5.31,5.31,0,0,1,3.72-1.37,5.62,5.62,0,0,1,2.58.59,4.36,4.36,0,0,1,1.86,1.8,5.52,5.52,0,0,1,.6,2.8A.22.22,0,0,1,213.83,121.46Z" transform="translate(-23.39 -44.16)"/><path class="cls-2" d="M234.85,124.42h-2.41a.2.2,0,0,0-.2.17,4.21,4.21,0,0,1-1.58,2.58,5.67,5.67,0,0,1-5.85.35,4.71,4.71,0,0,1-1.88-2,7.13,7.13,0,0,1-.71-3.33,7.06,7.06,0,0,1,.71-3.32,4.74,4.74,0,0,1,1.88-2,5.69,5.69,0,0,1,5.85.34,4.16,4.16,0,0,1,1.58,2.57.21.21,0,0,0,.2.17h2.41a.22.22,0,0,0,.21-.26,7,7,0,0,0-2.47-4.18,7.9,7.9,0,0,0-5.14-1.65,8.33,8.33,0,0,0-4.13,1,7.06,7.06,0,0,0-2.83,2.9,9.2,9.2,0,0,0-1,4.43,9.1,9.1,0,0,0,1,4.42,7.07,7.07,0,0,0,2.83,2.88,8.33,8.33,0,0,0,4.13,1,7.9,7.9,0,0,0,5.14-1.64,6.91,6.91,0,0,0,2.47-4.19A.22.22,0,0,0,234.85,124.42Z" transform="translate(-23.39 -44.16)"/><path class="cls-2" d="M251.74,115.63a6.06,6.06,0,0,0-4.58-1.82,6.39,6.39,0,0,0-3.65,1.06,5.33,5.33,0,0,0-1.81,2.07.2.2,0,0,1-.39-.09v-8.21a.21.21,0,0,0-.21-.21h-2.27a.21.21,0,0,0-.21.21v21.45a.21.21,0,0,0,.21.21h2.27a.21.21,0,0,0,.21-.21V121.7a5.91,5.91,0,0,1,1.33-4.18,4.6,4.6,0,0,1,3.55-1.43,4.41,4.41,0,0,1,3.36,1.3,5.15,5.15,0,0,1,1.25,3.72v3.07h2.68v-3.31A7.28,7.28,0,0,0,251.74,115.63Z" transform="translate(-23.39 -44.16)"/><polygon class="cls-3" points="36.63 57.52 12.2 48.57 21.16 24.12 21.26 24.15 15.64 11.96 15.51 11.91 0 54.22 42.25 69.71 36.63 57.52"/><polygon class="cls-2" points="15.86 12.19 40.28 21.14 31.32 45.59 31.23 45.56 36.85 57.75 36.98 57.8 52.49 15.49 10.24 0 15.86 12.19"/></svg>